<svg xmlns="http://www.w3.org/2000/svg" width="24" height="24" viewBox="0 0 24 24">
  <g id="그룹_1571" data-name="그룹 1571" transform="translate(6778 -14571)">
    <g id="사각형_1674" data-name="사각형 1674" transform="translate(-6778 14571)" fill="#fff" stroke="#707070" stroke-width="2" opacity="0">
      <rect width="24" height="24" stroke="none"/>
      <rect x="1" y="1" width="22" height="22" fill="none"/>
    </g>
    <g id="apple" transform="translate(-6811.729 14573.174)">
      <g id="그룹_1562" data-name="그룹 1562" transform="translate(45.404)">
        <g id="그룹_1561" data-name="그룹 1561">
          <path id="패스_443" data-name="패스 443" d="M251.531,0a4.612,4.612,0,0,0-2.986,1.616,4.006,4.006,0,0,0-.978,3.113,3.892,3.892,0,0,0,3.013-1.539A4.324,4.324,0,0,0,251.531,0Z" transform="translate(-247.522)" fill="#0077ed"/>
        </g>
      </g>
      <g id="그룹_1564" data-name="그룹 1564" transform="translate(37.336 4.6)">
        <g id="그룹_1563" data-name="그룹 1563" transform="translate(0)">
          <path id="패스_444" data-name="패스 444" d="M53.554,121.834A4.975,4.975,0,0,0,49.8,119.84c-1.763,0-2.508.844-3.733.844-1.263,0-2.222-.841-3.746-.841a5.1,5.1,0,0,0-4.1,2.48c-1.421,2.2-1.178,6.347,1.125,9.876.824,1.263,1.925,2.683,3.364,2.695,1.281.012,1.642-.822,3.378-.83s2.065.841,3.343.828c1.441-.011,2.6-1.585,3.426-2.847a14.159,14.159,0,0,0,1.269-2.383A4.333,4.333,0,0,1,53.554,121.834Z" transform="translate(-37.336 -119.84)" fill="#0077ed"/>
        </g>
      </g>
    </g>
  </g>
</svg>
