<svg xmlns="http://www.w3.org/2000/svg" width="774" height="107.302" viewBox="0 0 774 107.302">
  <g id="그룹_8838" data-name="그룹 8838" transform="translate(0 0)" opacity="0.05">
    <ellipse id="타원_245" data-name="타원 245" cx="9.236" cy="9.257" rx="9.236" ry="9.257" transform="translate(597.593 87.06)" fill="#a7a7a7"/>
    <path id="패스_1761" data-name="패스 1761" d="M474.043-277.465l.145,24.85h55.644v16.032H474.106l-.073,28.153h55.928v16H453.218V-293.6h76.754l-.181,16.223Z" transform="translate(36.408 297.436)" fill="#a7a7a7"/>
    <path id="패스_1762" data-name="패스 1762" d="M592.153-293.807h20.366v101.393H592.157Z" transform="translate(56.746 297.405)" fill="#a7a7a7"/>
    <g id="그룹_8836" data-name="그룹 8836" transform="translate(697.437 3.81)">
      <path id="패스_1763" data-name="패스 1763" d="M712.642-293.612H636.1v16.6h27.77v84.592h20.356v-84.577h28.437Z" transform="translate(-636.1 293.612)" fill="#a7a7a7"/>
    </g>
    <path id="패스_1764" data-name="패스 1764" d="M438.65-192.435l-27.26-42.353a31.991,31.991,0,0,0,17.823-27.529c0-17.27-15.413-31.269-34.427-31.269h-36.3v.031h-5.16l-.965-.036v101.135h20.846v-37.951h19.845l24.428,37.951Zm-65.444-85.278H390.8a16.578,16.578,0,0,1,17.316,15.727A16.578,16.578,0,0,1,390.8-246.258h-17.59Z" transform="translate(22.83 297.426)" fill="#a7a7a7"/>
    <g id="그룹_8837" data-name="그룹 8837" transform="translate(0)">
      <path id="패스_1765" data-name="패스 1765" d="M194.628-293.8v39H145.635v-39H125.067v101.393h20.568v-44.587h48.994v44.587H215.2V-293.8Z" transform="translate(-11.61 297.409)" fill="#a7a7a7"/>
      <path id="패스_1766" data-name="패스 1766" d="M99.257-240.023a29,29,0,0,0-10.165-6.445,89.969,89.969,0,0,0-12.508-4.778L63.37-255.332c-9.608-2.983-14.417-9.056-14.417-13.932a10.123,10.123,0,0,1,5.16-8.576,22.794,22.794,0,0,1,11.1-2.761c8.958,0,16.378,4.644,17.688,10.7l19.675.108v-.222a24.768,24.768,0,0,0-17.89-23.56,54.372,54.372,0,0,0-19.711-3.467,52.118,52.118,0,0,0-22.219,4.566,24.618,24.618,0,0,0-14.912,22.462v.222a24.443,24.443,0,0,0,11.527,20.64A54.171,54.171,0,0,0,55.2-241.365l13.416,3.556A64.914,64.914,0,0,1,77.2-234.4a29.259,29.259,0,0,1,4.469,2.688,13.665,13.665,0,0,1,5.217,10.836,13.881,13.881,0,0,1-4.407,10.108A24.72,24.72,0,0,1,65.284-205.2a30.349,30.349,0,0,1-13.2-2.755,14.17,14.17,0,0,1-8.669-12.9l-21.114.346a27.781,27.781,0,0,0,17,25.341,59.512,59.512,0,0,0,25.887,5.408c14.752,0,27.518-4.447,33.71-10.919a27.305,27.305,0,0,0,8.5-17.281,29.165,29.165,0,0,0,.263-3.777,23.1,23.1,0,0,0-7.461-17.415C99.892-239.476,99.562-239.739,99.257-240.023Z" transform="translate(-22.297 297.052)" fill="#a7a7a7"/>
    </g>
    <path id="패스_1767" data-name="패스 1767" d="M231.512-192.333h22.064l31.759-63.359,30.046,63.359H337.8L288.782-294.5h-6.646Z" transform="translate(6.505 297.34)" fill="#0077ed" opacity="0.678"/>
  </g>
</svg>
