<svg xmlns="http://www.w3.org/2000/svg" width="24" height="24" viewBox="0 0 24 24">
  <g id="그룹_1575" data-name="그룹 1575" transform="translate(6522 -14350)">
    <g id="사각형_1675" data-name="사각형 1675" transform="translate(-6522 14350)" fill="#fff" stroke="#707070" stroke-width="2" opacity="0">
      <rect width="24" height="24" stroke="none"/>
      <rect x="1" y="1" width="22" height="22" fill="none"/>
    </g>
    <g id="그룹_1574" data-name="그룹 1574">
      <path id="패스_2688" data-name="패스 2688" d="M106.108,240.49H92.38a3.171,3.171,0,0,0-3.171,3.182v7.546a3.171,3.171,0,0,0,3.171,3.18h4.73l1.613,2.627a.481.481,0,0,0,.052.075.54.54,0,0,0,.936,0,.326.326,0,0,0,.055-.079l1.612-2.627h4.73a3.171,3.171,0,0,0,3.171-3.18v-7.543a3.178,3.178,0,0,0-3.171-3.182" transform="translate(-6609.25 14113.436)" fill="#0077ed"/>
      <path id="패스_2689" data-name="패스 2689" d="M93.688,246.057a1.633,1.633,0,0,0-1.046.487v-1.949H91.415v5.117h1.241v-.4a1.179,1.179,0,0,0,1.033.53,1.813,1.813,0,0,0,1.73-1.914s-.063-1.87-1.73-1.87m-.272,2.7a.787.787,0,1,1,.561-.229.793.793,0,0,1-.561.229" transform="translate(-6609.27 14113.398)" fill="#fff"/>
      <path id="패스_2690" data-name="패스 2690" d="M95.855,244.475v1.189s.559-.025.559,1.02v3.029H97.6V246.4s.051-1.925-1.744-1.925" transform="translate(-6609.31 14113.399)" fill="#fff"/>
      <path id="패스_2691" data-name="패스 2691" d="M100.517,246.088s-2.03,0-2.03,1.895a1.836,1.836,0,0,0,2.03,1.872s2.081,0,2.081-1.872a1.864,1.864,0,0,0-2.081-1.895m0,2.683a.787.787,0,1,1,.561-.229.793.793,0,0,1-.561.229" transform="translate(-6609.333 14113.385)" fill="#fff"/>
      <path id="패스_2692" data-name="패스 2692" d="M106.028,246.208v.349a1.345,1.345,0,0,0-1.032-.469,1.693,1.693,0,0,0-1.738,1.883s-.018,1.823,1.685,1.823a1.413,1.413,0,0,0,1.08-.468v.286s.086.9-.783.9h-.3v1.09h.479a1.784,1.784,0,0,0,1.8-1.919v-3.468Zm-.734,2.563a.793.793,0,1,1,.793-.788.793.793,0,0,1-.793.788" transform="translate(-6609.376 14113.385)" fill="#fff"/>
    </g>
  </g>
</svg>
