<svg xmlns="http://www.w3.org/2000/svg" xmlns:xlink="http://www.w3.org/1999/xlink" width="80" height="80" viewBox="0 0 80 80">
  <defs>
    <clipPath id="clip-path">
      <rect id="사각형_33" data-name="사각형 33" width="74.602" height="50.831" fill="none"/>
    </clipPath>
  </defs>
  <g id="그룹_226" data-name="그룹 226" transform="translate(-832 -1322)">
    <g id="사각형_278" data-name="사각형 278" transform="translate(832 1322)" fill="none" stroke="#707070" stroke-width="1" opacity="0">
      <rect width="80" height="80" stroke="none"/>
      <rect x="0.5" y="0.5" width="79" height="79" fill="none"/>
    </g>
    <g id="그룹_14" data-name="그룹 14" transform="translate(835 1337)">
      <g id="그룹_13" data-name="그룹 13" clip-path="url(#clip-path)">
        <path id="패스_29" data-name="패스 29" d="M67,50.534a1.281,1.281,0,0,1-1.2-1.346V2.693H5.857v46.5a1.281,1.281,0,0,1-1.2,1.346,1.281,1.281,0,0,1-1.2-1.346V1.346A1.281,1.281,0,0,1,4.653,0H67a1.281,1.281,0,0,1,1.2,1.346V49.19A1.281,1.281,0,0,1,67,50.535" transform="translate(1.653 0)" fill="#0077ed"/>
        <path id="패스_30" data-name="패스 30" d="M73.063,33.6H1.392a1.356,1.356,0,0,1,0-2.7h71.67a1.356,1.356,0,0,1,0,2.693" transform="translate(0.075 16.957)" fill="#0077ed"/>
        <path id="패스_31" data-name="패스 31" d="M73.063,33.6H1.392a1.356,1.356,0,0,1,0-2.7h71.67a1.356,1.356,0,0,1,0,2.693Z" transform="translate(0.075 16.957)" fill="none"/>
        <path id="패스_32" data-name="패스 32" d="M10.595,49.622H9.219V7.59L4.01,1.549,4.984.462l5.411,6.265a.817.817,0,0,1,.2.544Z" transform="translate(1.921 0.253)" fill="#0077ed"/>
        <path id="패스_33" data-name="패스 33" d="M10.595,49.622H9.219V7.59L4.01,1.549,4.984.462l5.411,6.265a.817.817,0,0,1,.2.544Z" transform="translate(1.921 0.253)" fill="none"/>
        <path id="패스_34" data-name="패스 34" d="M43.589,49.622H42.213V7.27a.817.817,0,0,1,.2-.544L47.791.462l.974,1.087L43.6,7.59Z" transform="translate(20.23 0.253)" fill="#0077ed"/>
        <path id="패스_35" data-name="패스 35" d="M43.589,49.622H42.213V7.27a.817.817,0,0,1,.2-.544L47.791.462l.974,1.087L43.6,7.59Z" transform="translate(20.23 0.253)" fill="none"/>
        <rect id="사각형_15" data-name="사각형 15" width="52.676" height="1.539" transform="translate(11.142 6.757)" fill="#0077ed"/>
        <rect id="사각형_16" data-name="사각형 16" width="52.676" height="1.539" transform="translate(11.142 6.757)" fill="none"/>
        <rect id="사각형_17" data-name="사각형 17" width="0.689" height="40.752" transform="translate(19.086 8.352)" fill="#0077ed"/>
        <rect id="사각형_18" data-name="사각형 18" width="0.689" height="40.752" transform="translate(19.086 8.352)" fill="none"/>
        <rect id="사각형_19" data-name="사각형 19" width="0.689" height="40.752" transform="translate(28.157 8.352)" fill="#0077ed"/>
        <rect id="사각형_20" data-name="사각형 20" width="0.689" height="40.752" transform="translate(28.157 8.352)" fill="none"/>
        <rect id="사각형_21" data-name="사각형 21" width="0.689" height="40.752" transform="translate(37.228 8.352)" fill="#0077ed"/>
        <rect id="사각형_22" data-name="사각형 22" width="0.689" height="40.752" transform="translate(37.228 8.352)" fill="none"/>
        <rect id="사각형_23" data-name="사각형 23" width="0.689" height="40.752" transform="translate(46.297 8.352)" fill="#0077ed"/>
        <rect id="사각형_24" data-name="사각형 24" width="0.689" height="40.752" transform="translate(46.297 8.352)" fill="none"/>
        <rect id="사각형_25" data-name="사각형 25" width="0.689" height="40.752" transform="translate(55.366 8.352)" fill="#0077ed"/>
        <rect id="사각형_26" data-name="사각형 26" width="0.689" height="40.752" transform="translate(55.366 8.352)" fill="none"/>
        <rect id="사각형_27" data-name="사각형 27" width="51.301" height="0.77" transform="translate(11.829 17.665)" fill="#0077ed"/>
        <rect id="사각형_28" data-name="사각형 28" width="51.301" height="0.77" transform="translate(11.829 17.665)" fill="none"/>
        <rect id="사각형_29" data-name="사각형 29" width="51.301" height="0.77" transform="translate(11.829 28.185)" fill="#0077ed"/>
        <rect id="사각형_30" data-name="사각형 30" width="51.301" height="0.77" transform="translate(11.829 28.185)" fill="none"/>
        <rect id="사각형_31" data-name="사각형 31" width="51.301" height="0.77" transform="translate(11.919 38.708)" fill="#0077ed"/>
        <rect id="사각형_32" data-name="사각형 32" width="51.301" height="0.77" transform="translate(11.919 38.708)" fill="none"/>
      </g>
    </g>
  </g>
</svg>
