<svg xmlns="http://www.w3.org/2000/svg" xmlns:xlink="http://www.w3.org/1999/xlink" width="80" height="80" viewBox="0 0 80 80">
  <defs>
    <clipPath id="clip-path">
      <rect id="사각형_36" data-name="사각형 36" width="68.647" height="68.647" fill="none"/>
    </clipPath>
  </defs>
  <g id="그룹_222" data-name="그룹 222" transform="translate(-1178 -1331)">
    <g id="사각형_282" data-name="사각형 282" transform="translate(1178 1331)" fill="none" stroke="#707070" stroke-width="1" opacity="0">
      <rect width="80" height="80" stroke="none"/>
      <rect x="0.5" y="0.5" width="79" height="79" fill="none"/>
    </g>
    <g id="그룹_21" data-name="그룹 21" transform="translate(1184 1337)">
      <rect id="사각형_34" data-name="사각형 34" width="68.649" height="2.86" transform="translate(0 65.788)" fill="#0077ed"/>
      <g id="그룹_20" data-name="그룹 20">
        <g id="그룹_19" data-name="그룹 19" clip-path="url(#clip-path)">
          <path id="패스_90" data-name="패스 90" d="M27.165,53.764H18.585a1.429,1.429,0,0,1-1.431-1.431V28.02a5.721,5.721,0,1,1,11.441,0V52.333a1.429,1.429,0,0,1-1.429,1.431M20.014,50.9h5.721V28.02a2.861,2.861,0,0,0-5.721,0Z" transform="translate(11.449 14.883)" fill="#0077ed"/>
          <path id="패스_91" data-name="패스 91" d="M16.873,53.763H8.291a1.429,1.429,0,0,1-1.429-1.431V28.02a5.72,5.72,0,0,1,11.44,0V52.333a1.429,1.429,0,0,1-1.429,1.431M9.722,50.9h5.721V28.02a2.861,2.861,0,0,0-5.721,0Z" transform="translate(4.58 14.884)" fill="#0077ed"/>
          <path id="패스_92" data-name="패스 92" d="M37.458,53.763H28.878a1.429,1.429,0,0,1-1.431-1.431V28.019a5.719,5.719,0,1,1,11.439,0V52.332a1.429,1.429,0,0,1-1.427,1.431M30.307,50.9h5.719V28.019a2.86,2.86,0,1,0-5.719,0Z" transform="translate(18.32 14.884)" fill="#0077ed"/>
          <path id="패스_93" data-name="패스 93" d="M63.219,57.2H3.146a1.431,1.431,0,0,1-1.431-1.431V18.583a1.431,1.431,0,0,1,1.431-1.429H63.219a1.431,1.431,0,0,1,1.431,1.429V55.767A1.431,1.431,0,0,1,63.219,57.2M4.576,54.338H61.783V20.014H4.576Z" transform="translate(1.145 11.449)" fill="#0077ed"/>
          <path id="패스_94" data-name="패스 94" d="M49.193,28.029H9.15A1.431,1.431,0,0,1,7.719,26.6a21.453,21.453,0,1,1,42.906,0,1.431,1.431,0,0,1-1.431,1.431m-38.56-2.86H47.706a18.594,18.594,0,0,0-37.076,0" transform="translate(5.152 3.434)" fill="#0077ed"/>
          <path id="패스_95" data-name="패스 95" d="M14.338,20.287l-2.718-.894A15.7,15.7,0,0,1,26.569,8.578v2.858a12.839,12.839,0,0,0-12.231,8.851" transform="translate(7.756 5.725)" fill="#0077ed"/>
          <rect id="사각형_35" data-name="사각형 35" width="2.86" height="10.011" transform="translate(32.894)" fill="#0077ed"/>
        </g>
      </g>
    </g>
  </g>
</svg>
