<svg xmlns="http://www.w3.org/2000/svg" xmlns:xlink="http://www.w3.org/1999/xlink" width="80" height="80" viewBox="0 0 80 80">
  <defs>
    <clipPath id="clip-path">
      <rect id="사각형_37" data-name="사각형 37" width="67.538" height="64.035" fill="none"/>
    </clipPath>
  </defs>
  <g id="그룹_221" data-name="그룹 221" transform="translate(-1262 -1332)">
    <g id="사각형_283" data-name="사각형 283" transform="translate(1262 1332)" fill="none" stroke="#707070" stroke-width="1" opacity="0">
      <rect width="80" height="80" stroke="none"/>
      <rect x="0.5" y="0.5" width="79" height="79" fill="none"/>
    </g>
    <g id="그룹_23" data-name="그룹 23" transform="translate(1268 1340)">
      <g id="그룹_22" data-name="그룹 22" clip-path="url(#clip-path)">
        <path id="패스_96" data-name="패스 96" d="M8.862,20.334l.87,4.22a1,1,0,0,0,.719.749.834.834,0,0,0,.27.062.937.937,0,0,0,.719-.333l3.9-3.952c4.7-.392,8.451-2.638,9.886-5.694a14.708,14.708,0,0,0,3.448,1.259l2.9,4.405a.937.937,0,0,0,.842.449.969.969,0,0,0,.834-.449l2.915-4.4a13.978,13.978,0,0,0,3.417-1.259c1.436,3.056,5.216,5.3,9.916,5.694l3.865,3.952a1.052,1.052,0,0,0,.749.333.834.834,0,0,0,.27-.062.99.99,0,0,0,.719-.749l.87-4.22c4.169-1.381,6.837-4.345,6.837-7.64,0-4.669-5.336-8.451-11.922-8.451a15.142,15.142,0,0,0-7.17,1.737C42.119,2.624,37.652.2,32.413.2c-5.271,0-9.738,2.423-11.3,5.749a15.622,15.622,0,0,0-7.192-1.706c-6.56,0-11.892,3.775-11.892,8.451,0,3.295,2.633,6.26,6.837,7.64m42-14.053c5.449,0,9.885,2.873,9.885,6.413,0,2.515-2.334,4.822-5.933,5.871a1,1,0,0,0-.719.78l-.6,2.933-2.835-2.9a.857.857,0,0,0-.667-.3c-4.22-.24-7.67-2.253-8.687-4.8a7.213,7.213,0,0,0,3-5.633c0-.24,0-.479-.023-.719a13.173,13.173,0,0,1,6.59-1.644M32.413,2.238c5.454,0,9.885,2.873,9.885,6.406,0,2.761-2.871,5.277-6.952,6.118a1.087,1.087,0,0,0-.657.417l-2.276,3.473-2.276-3.473a1.107,1.107,0,0,0-.667-.417c-4.1-.834-6.977-3.357-6.977-6.118,0-3.533,4.46-6.406,9.916-6.406M13.924,6.281a13.386,13.386,0,0,1,6.621,1.644,3.168,3.168,0,0,0-.055.719,7.158,7.158,0,0,0,3.025,5.633c-1.049,2.546-4.5,4.559-8.689,4.8a.972.972,0,0,0-.694.3l-2.816,2.9-.6-2.933a1,1,0,0,0-.719-.78C6.377,17.516,4.04,15.207,4.04,12.694c0-3.54,4.435-6.413,9.885-6.413" transform="translate(1.356 0.133)" fill="#c9c9c9"/>
        <path id="패스_97" data-name="패스 97" d="M8.862,20.334l.87,4.22a1,1,0,0,0,.719.749.834.834,0,0,0,.27.062.937.937,0,0,0,.719-.333l3.9-3.952c4.7-.392,8.451-2.638,9.886-5.694a14.708,14.708,0,0,0,3.448,1.259l2.9,4.405a.937.937,0,0,0,.842.449.969.969,0,0,0,.834-.449l2.915-4.4a13.978,13.978,0,0,0,3.417-1.259c1.436,3.056,5.216,5.3,9.916,5.694l3.865,3.952a1.052,1.052,0,0,0,.749.333.834.834,0,0,0,.27-.062.99.99,0,0,0,.719-.749l.87-4.22c4.169-1.381,6.837-4.345,6.837-7.64,0-4.669-5.336-8.451-11.922-8.451a15.142,15.142,0,0,0-7.17,1.737C42.119,2.624,37.652.2,32.413.2c-5.271,0-9.738,2.423-11.3,5.749a15.622,15.622,0,0,0-7.192-1.706c-6.56,0-11.892,3.775-11.892,8.451C2.032,15.989,4.665,18.954,8.862,20.334ZM50.87,6.281c5.449,0,9.885,2.873,9.885,6.413,0,2.515-2.334,4.822-5.933,5.871a1,1,0,0,0-.719.78l-.6,2.933-2.835-2.9a.857.857,0,0,0-.667-.3c-4.22-.24-7.67-2.253-8.687-4.8a7.213,7.213,0,0,0,3-5.633c0-.24,0-.479-.023-.719A13.173,13.173,0,0,1,50.87,6.281ZM32.413,2.238c5.454,0,9.885,2.873,9.885,6.406,0,2.761-2.871,5.277-6.952,6.118a1.087,1.087,0,0,0-.657.417l-2.276,3.473-2.276-3.473a1.107,1.107,0,0,0-.667-.417c-4.1-.834-6.977-3.357-6.977-6.118C22.5,5.111,26.957,2.238,32.413,2.238ZM13.924,6.281a13.386,13.386,0,0,1,6.621,1.644,3.168,3.168,0,0,0-.055.719,7.158,7.158,0,0,0,3.025,5.633c-1.049,2.546-4.5,4.559-8.689,4.8a.972.972,0,0,0-.694.3l-2.816,2.9-.6-2.933a1,1,0,0,0-.719-.78C6.377,17.516,4.04,15.207,4.04,12.694,4.04,9.154,8.482,6.281,13.924,6.281Z" transform="translate(1.356 0.133)" fill="none"/>
        <path id="패스_98" data-name="패스 98" d="M67.066,39.827A12.6,12.6,0,0,0,61.5,29.732a7.4,7.4,0,0,0,1.2-4.045,6.368,6.368,0,1,0-12.735,0,7.42,7.42,0,0,0,1.23,4.045,12.563,12.563,0,0,0-5.062,6.92h-1.9a7.647,7.647,0,0,0,.117-1.411,12.519,12.519,0,0,0-5.573-10.093A7.17,7.17,0,0,0,39.994,21.1a6.108,6.108,0,0,0-6.351-6.3,6.118,6.118,0,0,0-6.381,6.3,7.434,7.434,0,0,0,1.227,4.074,12.506,12.506,0,0,0-5.576,10.063,11.28,11.28,0,0,0,.117,1.411H21.145a12.578,12.578,0,0,0-5.062-6.92,7.4,7.4,0,0,0,1.2-4.045,6.11,6.11,0,0,0-6.35-6.295,6.131,6.131,0,0,0-6.381,6.295,7.418,7.418,0,0,0,1.227,4.045A12.6,12.6,0,0,0,.2,39.827,7.9,7.9,0,0,0,5.326,47.47L2.478,52.294a1.041,1.041,0,0,0,0,1.017.975.975,0,0,0,.865.51H63.9a1.02,1.02,0,0,0,.9-.51.962.962,0,0,0-.03-1.017L61.886,47.44a7.874,7.874,0,0,0,5.181-7.614M56.348,21.4a4.14,4.14,0,0,1,4.335,4.289,4.631,4.631,0,0,1-4.335,4.854A4.636,4.636,0,0,1,52,25.687,4.125,4.125,0,0,1,56.348,21.4M33.637,16.844a4.115,4.115,0,0,1,4.335,4.26,4.629,4.629,0,0,1-4.335,4.852A4.629,4.629,0,0,1,29.294,21.1a4.1,4.1,0,0,1,4.344-4.26m-3.773,9.793a6.091,6.091,0,0,0,3.773,1.351,5.891,5.891,0,0,0,3.713-1.319,10.278,10.278,0,0,1,4.976,8.566,7.187,7.187,0,0,1-.147,1.411H25.1a7.25,7.25,0,0,1-.147-1.411,10.382,10.382,0,0,1,4.914-8.6M10.928,21.4a4.14,4.14,0,0,1,4.344,4.289,4.634,4.634,0,0,1-4.344,4.854,4.632,4.632,0,0,1-4.345-4.854A4.125,4.125,0,0,1,10.928,21.4M2.239,39.827a10.266,10.266,0,0,1,4.939-8.6,5.869,5.869,0,0,0,7.492,0,10.3,10.3,0,0,1,4.374,5.424H12.3a.969.969,0,0,0-.865.51L6.371,45.7a5.894,5.894,0,0,1-4.135-5.871M62.131,51.784H5.117L12.9,38.69H54.372ZM60.867,45.7,55.8,37.162a.967.967,0,0,0-.865-.51H48.224A10.171,10.171,0,0,1,52.6,31.228a5.869,5.869,0,0,0,7.492,0,10.268,10.268,0,0,1,4.941,8.6A5.884,5.884,0,0,1,60.863,45.7" transform="translate(0.132 9.88)" fill="#c9c9c9"/>
        <path id="패스_99" data-name="패스 99" d="M67.066,39.827A12.6,12.6,0,0,0,61.5,29.732a7.4,7.4,0,0,0,1.2-4.045,6.368,6.368,0,1,0-12.735,0,7.42,7.42,0,0,0,1.23,4.045,12.563,12.563,0,0,0-5.062,6.92h-1.9a7.647,7.647,0,0,0,.117-1.411,12.519,12.519,0,0,0-5.573-10.093A7.17,7.17,0,0,0,39.994,21.1a6.108,6.108,0,0,0-6.351-6.3,6.118,6.118,0,0,0-6.381,6.3,7.434,7.434,0,0,0,1.227,4.074,12.506,12.506,0,0,0-5.576,10.063,11.28,11.28,0,0,0,.117,1.411H21.145a12.578,12.578,0,0,0-5.062-6.92,7.4,7.4,0,0,0,1.2-4.045,6.11,6.11,0,0,0-6.35-6.295,6.131,6.131,0,0,0-6.381,6.295,7.418,7.418,0,0,0,1.227,4.045A12.6,12.6,0,0,0,.2,39.827,7.9,7.9,0,0,0,5.326,47.47L2.478,52.294a1.041,1.041,0,0,0,0,1.017.975.975,0,0,0,.865.51H63.9a1.02,1.02,0,0,0,.9-.51.962.962,0,0,0-.03-1.017L61.886,47.44a7.874,7.874,0,0,0,5.181-7.614ZM56.348,21.4a4.14,4.14,0,0,1,4.335,4.289,4.631,4.631,0,0,1-4.335,4.854A4.636,4.636,0,0,1,52,25.687,4.125,4.125,0,0,1,56.348,21.4ZM33.637,16.844a4.115,4.115,0,0,1,4.335,4.26,4.629,4.629,0,0,1-4.335,4.852A4.629,4.629,0,0,1,29.294,21.1a4.1,4.1,0,0,1,4.344-4.26Zm-3.773,9.793a6.091,6.091,0,0,0,3.773,1.351,5.891,5.891,0,0,0,3.713-1.319,10.278,10.278,0,0,1,4.976,8.566,7.187,7.187,0,0,1-.147,1.411H25.1a7.25,7.25,0,0,1-.147-1.411,10.382,10.382,0,0,1,4.914-8.6ZM10.928,21.4a4.14,4.14,0,0,1,4.344,4.289,4.634,4.634,0,0,1-4.344,4.854,4.632,4.632,0,0,1-4.345-4.854A4.125,4.125,0,0,1,10.928,21.4ZM2.239,39.827a10.266,10.266,0,0,1,4.939-8.6,5.869,5.869,0,0,0,7.492,0,10.3,10.3,0,0,1,4.374,5.424H12.3a.969.969,0,0,0-.865.51L6.371,45.7a5.894,5.894,0,0,1-4.132-5.871ZM62.134,51.784H5.117L12.9,38.69H54.372ZM60.87,45.7l-5.062-8.536a.967.967,0,0,0-.865-.51H48.224A10.171,10.171,0,0,1,52.6,31.228a5.869,5.869,0,0,0,7.492,0,10.268,10.268,0,0,1,4.941,8.6A5.884,5.884,0,0,1,60.87,45.7Z" transform="translate(0.132 9.88)" fill="none"/>
      </g>
    </g>
  </g>
</svg>
