<svg xmlns="http://www.w3.org/2000/svg" width="80" height="80" viewBox="0 0 80 80">
  <g id="그룹_227" data-name="그룹 227" transform="translate(-748 -1390)">
    <g id="사각형_277" data-name="사각형 277" transform="translate(748 1390)" fill="none" stroke="#707070" stroke-width="1" opacity="0">
      <rect width="80" height="80" stroke="none"/>
      <rect x="0.5" y="0.5" width="79" height="79" fill="none"/>
    </g>
    <g id="야ᄋ_공간" data-name="야외공간" transform="translate(755.106 1402.261)">
      <path id="패스_22" data-name="패스 22" d="M14.561,3.929l.02-1.978,1.981.025L16.545,3.95ZM12.672,0,12.66,5.279l5.849.062.01-5.279Z" transform="translate(5.277)" fill="#c9c9c9"/>
      <path id="패스_23" data-name="패스 23" d="M32.128,3.929l.018-1.978,1.984.023L34.11,3.95ZM30.237,0l-.01,5.279,5.848.062L36.083.062Z" transform="translate(12.6)" fill="#c9c9c9"/>
      <path id="패스_24" data-name="패스 24" d="M62.852,19.69H2V11.558H62.852ZM3.931,17.758H60.919V13.491H3.931Z" transform="translate(0.833 4.818)" fill="#c9c9c9"/>
      <path id="패스_25" data-name="패스 25" d="M62.852,10.889H2V2.757H62.852ZM3.931,8.957H60.919V4.69H3.931Z" transform="translate(0.833 1.15)" fill="#c9c9c9"/>
      <path id="패스_26" data-name="패스 26" d="M1.931,23.491H64.587v6.867H1.931ZM0,32.29H66.52V21.558H0Z" transform="translate(0 8.986)" fill="#c9c9c9"/>
      <path id="패스_27" data-name="패스 27" d="M8.685,29.2h1.981v11.64H8.685ZM6.754,42.786H12.6V28.831H6.754Z" transform="translate(2.815 12.018)" fill="#c9c9c9"/>
      <path id="패스_28" data-name="패스 28" d="M38,29.2h1.984v11.64H38ZM36.067,42.786h5.848V28.831H36.067Z" transform="translate(15.035 12.018)" fill="#c9c9c9"/>
      <rect id="사각형_7" data-name="사각형 7" width="2.018" height="7.894" transform="translate(17.635 23.219)" fill="#c9c9c9"/>
      <rect id="사각형_8" data-name="사각형 8" width="2.018" height="7.894" transform="translate(21.562 23.219)" fill="#c9c9c9"/>
      <rect id="사각형_9" data-name="사각형 9" width="2.018" height="7.894" transform="translate(42.742 23.219)" fill="#c9c9c9"/>
      <rect id="사각형_10" data-name="사각형 10" width="2.018" height="7.894" transform="translate(46.665 23.219)" fill="#c9c9c9"/>
      <rect id="사각형_11" data-name="사각형 11" width="2.018" height="6.476" transform="translate(17.635 11.275)" fill="#c9c9c9"/>
      <rect id="사각형_12" data-name="사각형 12" width="2.018" height="6.476" transform="translate(21.562 11.275)" fill="#c9c9c9"/>
      <rect id="사각형_13" data-name="사각형 13" width="2.018" height="6.476" transform="translate(42.742 11.275)" fill="#c9c9c9"/>
      <rect id="사각형_14" data-name="사각형 14" width="2.018" height="6.476" transform="translate(46.665 11.275)" fill="#c9c9c9"/>
    </g>
  </g>
</svg>
