<svg xmlns="http://www.w3.org/2000/svg" xmlns:xlink="http://www.w3.org/1999/xlink" width="80" height="80" viewBox="0 0 80 80">
  <defs>
    <clipPath id="clip-path">
      <rect id="사각형_5" data-name="사각형 5" width="61.242" height="62.91" fill="none"/>
    </clipPath>
  </defs>
  <g id="그룹_229" data-name="그룹 229" transform="translate(-580 -1328)">
    <g id="사각형_275" data-name="사각형 275" transform="translate(580 1328)" fill="none" stroke="#707070" stroke-width="1" opacity="0">
      <rect width="80" height="80" stroke="none"/>
      <rect x="0.5" y="0.5" width="79" height="79" fill="none"/>
    </g>
    <g id="그룹_9" data-name="그룹 9" transform="translate(589.364 1336.261)">
      <g id="그룹_8" data-name="그룹 8" clip-path="url(#clip-path)">
        <path id="패스_14" data-name="패스 14" d="M58.036,37.446a.909.909,0,0,0,.9-.922V8.137a2.723,2.723,0,0,0,1.844-2.58V2.968A2.77,2.77,0,0,0,58.036.2H2.97A2.775,2.775,0,0,0,.2,2.968v2.59a2.76,2.76,0,0,0,1.846,2.58V36.524a.912.912,0,0,0,.924.922H18.494v7.6a3.668,3.668,0,0,0-1.818-.489h-4.7a3.668,3.668,0,0,0-3.692,3.667V49.9h-4.4A3.668,3.668,0,0,0,.2,53.572v7.947a.93.93,0,0,0,.924.922H11.355a.907.907,0,0,0,.9-.922V53.572a3.635,3.635,0,0,0-2.118-3.313V48.223a1.846,1.846,0,0,1,1.846-1.846h4.7a1.843,1.843,0,0,1,1.818,1.846v2.034a3.68,3.68,0,0,0-2.119,3.315v7.947a.93.93,0,0,0,.922.922H27.5a.914.914,0,0,0,.924-.922V53.572a3.635,3.635,0,0,0-2.118-3.313V48.223a1.848,1.848,0,0,1,1.844-1.846h4.7A1.868,1.868,0,0,1,34.7,48.223v2.034a3.615,3.615,0,0,0-2.148,3.315v7.947a.912.912,0,0,0,.924.922h10.2a.912.912,0,0,0,.922-.922V53.572a3.635,3.635,0,0,0-2.118-3.313V48.223A1.843,1.843,0,0,1,44.3,46.377h4.724a1.834,1.834,0,0,1,1.819,1.846v2.034a3.643,3.643,0,0,0-2.118,3.313v7.947a.917.917,0,0,0,.924.922h10.2a.912.912,0,0,0,.922-.922V53.572A3.668,3.668,0,0,0,57.107,49.9H52.688V48.223a3.668,3.668,0,0,0-3.668-3.668H44.3a3.835,3.835,0,0,0-1.818.489v-7.6ZM10.433,60.6H2.046V53.572a1.844,1.844,0,0,1,1.846-1.848h4.7a1.866,1.866,0,0,1,1.844,1.846Zm48.5-7.025V60.6H50.57V53.572a1.834,1.834,0,0,1,1.821-1.848h4.724a1.834,1.834,0,0,1,1.819,1.846M2.046,5.558V2.968a.912.912,0,0,1,.924-.922H58.036a.909.909,0,0,1,.9.922v2.59a.9.9,0,0,1-.9.9H2.97a.907.907,0,0,1-.924-.9M3.892,35.6V8.3h53.22V35.6H42.483V33.567h1.767a.91.91,0,0,0,.922-.9V27.024a.934.934,0,0,0-.922-.922H31.411V23.794A2.029,2.029,0,0,0,32.55,21.95a2.062,2.062,0,1,0-4.124,0,2.026,2.026,0,0,0,1.139,1.844V26.1H16.726a.935.935,0,0,0-.924.922v5.648a.912.912,0,0,0,.924.9h1.767V35.6Zm13.756-7.654h25.7v3.8h-25.7ZM26.607,60.6H18.222V53.572a1.834,1.834,0,0,1,1.821-1.848h4.726a1.864,1.864,0,0,1,1.844,1.846ZM32.85,44.556h-4.7a3.668,3.668,0,0,0-3.69,3.667V49.9H20.339V33.559h20.3V49.9H36.514V48.223a3.668,3.668,0,0,0-3.668-3.668M42.778,60.6H34.391V53.572a1.846,1.846,0,0,1,1.849-1.848h4.7a1.863,1.863,0,0,1,1.846,1.846Z" transform="translate(0.133 0.133)" fill="#0077ed"/>
        <path id="패스_15" data-name="패스 15" d="M58.036,37.446a.909.909,0,0,0,.9-.922V8.137a2.723,2.723,0,0,0,1.844-2.58V2.968A2.77,2.77,0,0,0,58.036.2H2.97A2.775,2.775,0,0,0,.2,2.968v2.59a2.76,2.76,0,0,0,1.846,2.58V36.524a.912.912,0,0,0,.924.922H18.494v7.6a3.668,3.668,0,0,0-1.818-.489h-4.7a3.668,3.668,0,0,0-3.692,3.667V49.9h-4.4A3.668,3.668,0,0,0,.2,53.572v7.947a.93.93,0,0,0,.924.922H11.355a.907.907,0,0,0,.9-.922V53.572a3.635,3.635,0,0,0-2.118-3.313V48.223a1.846,1.846,0,0,1,1.846-1.846h4.7a1.843,1.843,0,0,1,1.818,1.846v2.034a3.68,3.68,0,0,0-2.119,3.315v7.947a.93.93,0,0,0,.922.922H27.5a.914.914,0,0,0,.924-.922V53.572a3.635,3.635,0,0,0-2.118-3.313V48.223a1.848,1.848,0,0,1,1.844-1.846h4.7A1.868,1.868,0,0,1,34.7,48.223v2.034a3.615,3.615,0,0,0-2.148,3.315v7.947a.912.912,0,0,0,.924.922h10.2a.912.912,0,0,0,.922-.922V53.572a3.635,3.635,0,0,0-2.118-3.313V48.223A1.843,1.843,0,0,1,44.3,46.377h4.724a1.834,1.834,0,0,1,1.819,1.846v2.034a3.643,3.643,0,0,0-2.118,3.313v7.947a.917.917,0,0,0,.924.922h10.2a.912.912,0,0,0,.922-.922V53.572A3.668,3.668,0,0,0,57.107,49.9H52.688V48.223a3.668,3.668,0,0,0-3.668-3.668H44.3a3.835,3.835,0,0,0-1.818.489v-7.6ZM10.433,60.6H2.046V53.572a1.844,1.844,0,0,1,1.846-1.848h4.7a1.866,1.866,0,0,1,1.844,1.846Zm48.5-7.025V60.6H50.57V53.572a1.834,1.834,0,0,1,1.821-1.848h4.724a1.834,1.834,0,0,1,1.816,1.848ZM2.046,5.558V2.968a.912.912,0,0,1,.924-.922H58.036a.909.909,0,0,1,.9.922v2.59a.9.9,0,0,1-.9.9H2.97a.907.907,0,0,1-.924-.9ZM3.892,35.6V8.3h53.22V35.6H42.483V33.567h1.767a.91.91,0,0,0,.922-.9V27.024a.934.934,0,0,0-.922-.922H31.411V23.794A2.029,2.029,0,0,0,32.55,21.95a2.062,2.062,0,1,0-4.124,0,2.026,2.026,0,0,0,1.139,1.844V26.1H16.726a.935.935,0,0,0-.924.922v5.648a.912.912,0,0,0,.924.9h1.767V35.6Zm13.756-7.654h25.7v3.8h-25.7ZM26.607,60.6H18.222V53.572a1.834,1.834,0,0,1,1.821-1.848h4.726a1.864,1.864,0,0,1,1.844,1.846ZM32.85,44.556h-4.7a3.668,3.668,0,0,0-3.69,3.667V49.9H20.339V33.559h20.3V49.9H36.514V48.223a3.668,3.668,0,0,0-3.663-3.668ZM42.783,60.6H34.4V53.572a1.846,1.846,0,0,1,1.844-1.848h4.7a1.863,1.863,0,0,1,1.846,1.846Z" transform="translate(0.133 0.133)" fill="none"/>
      </g>
    </g>
  </g>
</svg>
