<svg xmlns="http://www.w3.org/2000/svg" xmlns:xlink="http://www.w3.org/1999/xlink" width="80" height="80" viewBox="0 0 80 80">
  <defs>
    <clipPath id="clip-path">
      <rect id="사각형_4" data-name="사각형 4" width="65.462" height="58.364" fill="none"/>
    </clipPath>
  </defs>
  <g id="그룹_228" data-name="그룹 228" transform="translate(-660 -1328)">
    <g id="사각형_276" data-name="사각형 276" transform="translate(660 1328)" fill="none" stroke="#707070" stroke-width="1" opacity="0">
      <rect width="80" height="80" stroke="none"/>
      <rect x="0.5" y="0.5" width="79" height="79" fill="none"/>
    </g>
    <g id="그룹_7" data-name="그룹 7" transform="translate(667.734 1336.261)">
      <g id="그룹_6" data-name="그룹 6" clip-path="url(#clip-path)">
        <path id="패스_5" data-name="패스 5" d="M60.28,38.31H3a1.281,1.281,0,0,1-1.364-1.181v-5.9A1.281,1.281,0,0,1,3,30.044H60.28a1.281,1.281,0,0,1,1.362,1.182v5.906a1.281,1.281,0,0,1-1.362,1.181M4.362,35.95H58.915V32.407H4.362Z" transform="translate(1.092 20.051)" fill="#c9c9c9"/>
        <path id="패스_6" data-name="패스 6" d="M60.28,18.438H3a1.281,1.281,0,0,1-1.364-1.181V9.683A1.281,1.281,0,0,1,3,8.5H60.28a1.281,1.281,0,0,1,1.362,1.181v7.574a1.281,1.281,0,0,1-1.362,1.181M4.362,16.076H58.915V10.866H4.362Z" transform="translate(1.092 5.672)" fill="#c9c9c9"/>
        <path id="패스_7" data-name="패스 7" d="M54.551,43.753H5.453a1.282,1.282,0,0,1-1.364-1.181V14.226a1.282,1.282,0,0,1,1.364-1.181h49.1a1.282,1.282,0,0,1,1.364,1.181V42.572a1.282,1.282,0,0,1-1.364,1.181M6.819,41.39h46.37V15.4H6.819Z" transform="translate(2.729 8.705)" fill="#c9c9c9"/>
        <path id="패스_8" data-name="패스 8" d="M64.1,16.537H1.362a1.334,1.334,0,0,1-1.324-.9A1.131,1.131,0,0,1,.73,14.3L32.1.135a1.556,1.556,0,0,1,1.262,0L64.728,14.308a1.134,1.134,0,0,1,.692,1.334,1.334,1.334,0,0,1-1.324.9M6.923,14.173H58.535L32.73,2.514Z" transform="translate(0.002 0.001)" fill="#c9c9c9"/>
        <rect id="사각형_3" data-name="사각형 3" width="65.462" height="2.363" transform="translate(0 56.001)" fill="#c9c9c9"/>
        <path id="패스_9" data-name="패스 9" d="M16.1,36.079,13.405,35.7a9.76,9.76,0,0,0-4.822-10.6l1.376-2.039A12.024,12.024,0,0,1,16.1,36.079" transform="translate(5.729 15.388)" fill="#c9c9c9"/>
        <path id="패스_10" data-name="패스 10" d="M5.36,33.812l-.649-2.289C19.051,28.448,18.7,14.407,18.676,13.81l2.728-.082c0,.167.472,16.551-16.038,20.088" transform="translate(3.144 9.163)" fill="#c9c9c9"/>
        <path id="패스_11" data-name="패스 11" d="M26.268,36.079a12.022,12.022,0,0,1,6.14-13.024L33.775,25.1l-.684-1.022.69,1.017a9.76,9.76,0,0,0-4.822,10.6Z" transform="translate(17.369 15.388)" fill="#c9c9c9"/>
        <path id="패스_12" data-name="패스 12" d="M40.575,33.814C24.068,30.277,24.531,13.893,24.538,13.726l2.728.082c-.025.6-.382,14.639,13.965,17.713Z" transform="translate(16.376 9.161)" fill="#c9c9c9"/>
        <path id="패스_13" data-name="패스 13" d="M23.761,20.537a20.48,20.48,0,0,1-10.32-2.591L14.987,16a18.861,18.861,0,0,0,17.547,0l1.547,1.944a20.48,20.48,0,0,1-10.32,2.591" transform="translate(8.971 10.679)" fill="#c9c9c9"/>
      </g>
    </g>
  </g>
</svg>
