<svg xmlns="http://www.w3.org/2000/svg" xmlns:xlink="http://www.w3.org/1999/xlink" width="80" height="80" viewBox="0 0 80 80">
  <defs>
    <clipPath id="clip-path">
      <rect id="사각형_7" data-name="사각형 7" width="60.88" height="61.167" fill="none"/>
    </clipPath>
  </defs>
  <g id="그룹_232" data-name="그룹 232" transform="translate(-1867 -1401)">
    <g id="사각형_287" data-name="사각형 287" transform="translate(1867 1401)" fill="#fff" stroke="#707070" stroke-width="1" opacity="0">
      <rect width="80" height="80" stroke="none"/>
      <rect x="0.5" y="0.5" width="79" height="79" fill="none"/>
    </g>
    <g id="그룹_12" data-name="그룹 12" transform="translate(1877 1410)">
      <g id="그룹_11" data-name="그룹 11" clip-path="url(#clip-path)">
        <path id="패스_46" data-name="패스 46" d="M60.389,49.375V49.3L49.056,12.632V5.963c0-3.171-3.105-5.748-6.959-5.748H18.512c-3.827,0-6.959,2.577-6.959,5.748v6.669L.248,49.273v.106a.47.47,0,0,0-.034.139V59.764a1.071,1.071,0,0,0,1.145.949,1.084,1.084,0,0,0,1.178-.949v-9.3H58.108v9.3a1.181,1.181,0,0,0,2.314,0V49.516a.979.979,0,0,0-.033-.139M13.9,5.963a4.286,4.286,0,0,1,4.608-3.849H42.1a4.29,4.29,0,0,1,4.636,3.849v5.831H42.88c-.648-2.85-3.3-5.153-12.578-5.153s-11.888,2.3-12.544,5.153H13.9Zm26.821,7.673a1.215,1.215,0,0,1-.454,1c-1.372,1.143-5.554,1.115-8.886,1.115H29.224c-3.331,0-7.478.028-8.885-1.115a1.3,1.3,0,0,1-.454-1c0-2.277,0-5.07,10.416-5.07s10.424,2.793,10.424,5.07m-27.116.078H17.6A2.961,2.961,0,0,0,18.708,16c2.087,1.705,6.37,1.677,10.551,1.677l1.043-.028,1.084.028h1.171c3.758,0,7.48-.133,9.347-1.677a2.992,2.992,0,0,0,1.145-2.283H47l2.649,8.52H11ZM2.865,48.535l7.547-24.379H50.232l7.547,24.379Z" transform="translate(0.121 0.122)" fill="#0077ed"/>
        <path id="패스_47" data-name="패스 47" d="M60.389,49.375V49.3L49.056,12.632V5.963c0-3.171-3.105-5.748-6.959-5.748H18.512c-3.827,0-6.959,2.577-6.959,5.748v6.669L.248,49.273v.106a.47.47,0,0,0-.034.139V59.764a1.071,1.071,0,0,0,1.145.949,1.084,1.084,0,0,0,1.178-.949v-9.3H58.108v9.3a1.181,1.181,0,0,0,2.314,0V49.516A.978.978,0,0,0,60.389,49.375ZM13.9,5.963a4.286,4.286,0,0,1,4.608-3.849H42.1a4.29,4.29,0,0,1,4.636,3.849v5.831H42.88c-.648-2.85-3.3-5.153-12.578-5.153s-11.888,2.3-12.544,5.153H13.9Zm26.821,7.673a1.215,1.215,0,0,1-.454,1c-1.372,1.143-5.554,1.115-8.886,1.115H29.224c-3.331,0-7.478.028-8.885-1.115a1.3,1.3,0,0,1-.454-1c0-2.277,0-5.07,10.416-5.07s10.424,2.8,10.424,5.072Zm-27.116.078H17.6A2.961,2.961,0,0,0,18.708,16c2.087,1.705,6.37,1.677,10.551,1.677l1.043-.028,1.084.028h1.171c3.758,0,7.48-.133,9.347-1.677a2.992,2.992,0,0,0,1.145-2.283H47l2.649,8.52H11ZM2.865,48.535l7.547-24.379H50.232l7.547,24.379Z" transform="translate(0.121 0.122)" fill="none"/>
        <path id="패스_48" data-name="패스 48" d="M51.863,34.475H4.824a.977.977,0,1,0,0,1.926h47.04a.982.982,0,1,0,0-1.926" transform="translate(2.083 19.497)" fill="#0077ed"/>
        <path id="패스_49" data-name="패스 49" d="M51.863,34.475H4.824a.977.977,0,1,0,0,1.926h47.04a.982.982,0,1,0,0-1.926Z" transform="translate(2.083 19.497)" fill="none"/>
        <path id="패스_50" data-name="패스 50" d="M33.538,23.688,24.03,17.451a1.365,1.365,0,0,0-1.437,0l-9.506,6.237a.858.858,0,0,0,0,1.516l9.506,6.237a1.077,1.077,0,0,0,.716.216,1.163,1.163,0,0,0,.722-.216L33.538,25.2a.858.858,0,0,0,0-1.516m-10.23,5.775-7.64-5.02,7.64-5.011,7.648,5.011Z" transform="translate(7.147 9.759)" fill="#0077ed"/>
        <path id="패스_51" data-name="패스 51" d="M33.538,23.688,24.03,17.451a1.365,1.365,0,0,0-1.437,0l-9.506,6.237a.858.858,0,0,0,0,1.516l9.506,6.237a1.077,1.077,0,0,0,.716.216,1.163,1.163,0,0,0,.722-.216L33.538,25.2a.858.858,0,0,0,0-1.516Zm-10.23,5.775-7.64-5.02,7.64-5.011,7.648,5.011Z" transform="translate(7.147 9.759)" fill="none"/>
      </g>
    </g>
  </g>
</svg>
