<svg xmlns="http://www.w3.org/2000/svg" xmlns:xlink="http://www.w3.org/1999/xlink" width="80" height="80" viewBox="0 0 80 80">
  <defs>
    <clipPath id="clip-path">
      <rect id="사각형_33" data-name="사각형 33" width="74.895" height="64.942" fill="none"/>
    </clipPath>
  </defs>
  <g id="그룹_225" data-name="그룹 225" transform="translate(-924 -1326)">
    <g id="사각형_280" data-name="사각형 280" transform="translate(924 1326)" fill="none" stroke="#707070" stroke-width="1" opacity="0">
      <rect width="80" height="80" stroke="none"/>
      <rect x="0.5" y="0.5" width="79" height="79" fill="none"/>
    </g>
    <g id="그룹_18" data-name="그룹 18" transform="translate(927 1334)">
      <path id="패스_68" data-name="패스 68" d="M2.492,2.9H72.2V61.841H2.492ZM.149,64.6h74.4V.15H.149Z" transform="translate(0.099 0.1)" fill="#c9c9c9"/>
      <g id="그룹_17" data-name="그룹 17">
        <g id="그룹_16" data-name="그룹 16" clip-path="url(#clip-path)">
          <path id="패스_69" data-name="패스 69" d="M74.546,64.6H.149V.15h74.4ZM2.492,61.842H72.2V2.9H2.492Z" transform="translate(0.099 0.1)" fill="none"/>
          <path id="패스_70" data-name="패스 70" d="M22.031,62.539V1.527a.822.822,0,1,1,1.622,0V62.539a.822.822,0,1,1-1.622,0" transform="translate(14.698 0.382)" fill="#c9c9c9"/>
          <path id="패스_71" data-name="패스 71" d="M22.031,62.539V1.527a.822.822,0,1,1,1.622,0V62.539a.822.822,0,1,1-1.622,0Z" transform="translate(14.698 0.382)" fill="none"/>
          <path id="패스_72" data-name="패스 72" d="M17.935,23.028c0-4.942,3.425-8.964,7.635-8.964S33.2,18.086,33.2,23.028s-3.425,8.966-7.632,8.966-7.635-4.022-7.635-8.966m13.645,0c0-3.892-2.7-7.058-6-7.058s-6,3.168-6,7.058,2.7,7.058,6,7.058,6-3.168,6-7.058" transform="translate(11.971 9.387)" fill="#c9c9c9"/>
          <path id="패스_73" data-name="패스 73" d="M17.935,23.028c0-4.942,3.425-8.964,7.635-8.964S33.2,18.086,33.2,23.028s-3.425,8.966-7.632,8.966S17.935,27.972,17.935,23.028Zm13.645,0c0-3.892-2.7-7.058-6-7.058s-6,3.168-6,7.058,2.7,7.058,6,7.058S31.58,26.92,31.58,23.028Z" transform="translate(11.971 9.387)" fill="none"/>
          <path id="패스_74" data-name="패스 74" d="M.62,32.1V14.563a.889.889,0,0,1,.81-.952H8.142a.89.89,0,0,1,.812.952V32.1a.89.89,0,0,1-.812.952H1.43A.889.889,0,0,1,.62,32.1m1.622-.954H7.332V15.517H2.242Z" transform="translate(0.412 9.085)" fill="#c9c9c9"/>
          <path id="패스_75" data-name="패스 75" d="M.62,32.1V14.563a.889.889,0,0,1,.81-.952H8.142a.89.89,0,0,1,.812.952V32.1a.89.89,0,0,1-.812.952H1.43A.889.889,0,0,1,.62,32.1Zm1.622-.954H7.332V15.517H2.242Z" transform="translate(0.412 9.085)" fill="none"/>
          <path id="패스_76" data-name="패스 76" d="M39.412,32.1V14.563a.89.89,0,0,1,.812-.952h6.711a.89.89,0,0,1,.812.952V32.1a.89.89,0,0,1-.812.952H40.227a.89.89,0,0,1-.812-.952m1.624-.954h5.087V15.517H41.036Z" transform="translate(26.304 9.085)" fill="#c9c9c9"/>
          <path id="패스_77" data-name="패스 77" d="M39.412,32.1V14.563a.89.89,0,0,1,.812-.952h6.711a.89.89,0,0,1,.812.952V32.1a.89.89,0,0,1-.812.952H40.227A.89.89,0,0,1,39.412,32.1Zm1.624-.954h5.087V15.517H41.036Z" transform="translate(26.304 9.085)" fill="none"/>
          <path id="패스_78" data-name="패스 78" d="M.811,40.265V10.94a.447.447,0,0,1,.407-.479H12.811a.447.447,0,0,1,.405.479V40.265a.445.445,0,0,1-.405.477H1.217a.445.445,0,0,1-.407-.477m.812-.477H12.4V11.413H1.628Z" transform="translate(0.54 6.982)" fill="#c9c9c9"/>
          <path id="패스_79" data-name="패스 79" d="M.811,40.265V10.94a.447.447,0,0,1,.407-.479H12.811a.447.447,0,0,1,.405.479V40.265a.445.445,0,0,1-.405.477H1.217a.445.445,0,0,1-.407-.477Zm.812-.477H12.4V11.413H1.628Z" transform="translate(0.54 6.982)" fill="none"/>
          <path id="패스_80" data-name="패스 80" d="M36.779,40.265V10.94a.447.447,0,0,1,.405-.479H48.777a.447.447,0,0,1,.405.479V40.265a.445.445,0,0,1-.405.477H37.184a.445.445,0,0,1-.405-.477m.812-.477H48.372V11.413H37.591Z" transform="translate(24.547 6.982)" fill="#c9c9c9"/>
          <path id="패스_81" data-name="패스 81" d="M36.779,40.265V10.94a.447.447,0,0,1,.405-.479H48.777a.447.447,0,0,1,.405.479V40.265a.445.445,0,0,1-.405.477H37.184A.445.445,0,0,1,36.779,40.265Zm.812-.477H48.372V11.413H37.591Z" transform="translate(24.547 6.982)" fill="none"/>
          <path id="패스_82" data-name="패스 82" d="M40.255,40.736V40.69a7.874,7.874,0,0,1,6.058-7.447.369.369,0,0,1,.323.112.515.515,0,0,1,.138.36v7.022a.444.444,0,0,1-.405.475H40.664a.38.38,0,0,1-.3-.155.527.527,0,0,1-.105-.32m5.711-6.451a6.985,6.985,0,0,0-4.836,5.974h4.836Z" transform="translate(26.868 22.185)" fill="#c9c9c9"/>
          <path id="패스_83" data-name="패스 83" d="M40.255,40.736V40.69a7.874,7.874,0,0,1,6.058-7.447.369.369,0,0,1,.323.112.515.515,0,0,1,.138.36v7.022a.444.444,0,0,1-.405.475H40.664a.38.38,0,0,1-.3-.155.527.527,0,0,1-.108-.32Zm5.711-6.451a6.985,6.985,0,0,0-4.836,5.974h4.836Z" transform="translate(26.868 22.185)" fill="none"/>
          <path id="패스_84" data-name="패스 84" d="M40.255,1.335a.527.527,0,0,1,.105-.32.384.384,0,0,1,.3-.155h5.711a.445.445,0,0,1,.405.475V8.357a.515.515,0,0,1-.138.36.368.368,0,0,1-.323.112A7.872,7.872,0,0,1,40.26,1.382V1.335m5.711.477H41.135a6.982,6.982,0,0,0,4.836,5.974Z" transform="translate(26.868 0.574)" fill="#c9c9c9"/>
          <path id="패스_85" data-name="패스 85" d="M40.255,1.335a.527.527,0,0,1,.105-.32.384.384,0,0,1,.3-.155h5.711a.445.445,0,0,1,.405.475V8.357a.515.515,0,0,1-.138.36.368.368,0,0,1-.323.112A7.872,7.872,0,0,1,40.26,1.382Zm5.711.477H41.13a6.982,6.982,0,0,0,4.836,5.974Z" transform="translate(26.868 0.574)" fill="none"/>
          <path id="패스_86" data-name="패스 86" d="M7.315,1.335v.047a7.872,7.872,0,0,1-6.06,7.447.372.372,0,0,1-.323-.11A.52.52,0,0,1,.8,8.357V1.335A.445.445,0,0,1,1.2.86H6.91a.384.384,0,0,1,.3.155.527.527,0,0,1,.105.32M1.6,7.787A6.982,6.982,0,0,0,6.44,1.812H1.6Z" transform="translate(0.533 0.574)" fill="#c9c9c9"/>
          <path id="패스_87" data-name="패스 87" d="M7.315,1.335v.047a7.872,7.872,0,0,1-6.06,7.447.372.372,0,0,1-.323-.11A.52.52,0,0,1,.8,8.357V1.335A.445.445,0,0,1,1.2.86H6.91a.384.384,0,0,1,.3.155A.527.527,0,0,1,7.315,1.335ZM1.6,7.787A6.982,6.982,0,0,0,6.44,1.812H1.6Z" transform="translate(0.533 0.574)" fill="none"/>
          <path id="패스_88" data-name="패스 88" d="M7.315,40.736a.527.527,0,0,1-.105.32.38.38,0,0,1-.3.155H1.2a.444.444,0,0,1-.4-.475V33.715a.515.515,0,0,1,.138-.36.368.368,0,0,1,.323-.112A7.874,7.874,0,0,1,7.32,40.689v.047m-5.711-.477H6.445a6.985,6.985,0,0,0-4.836-5.974Z" transform="translate(0.533 22.185)" fill="#c9c9c9"/>
          <path id="패스_89" data-name="패스 89" d="M7.315,40.736a.527.527,0,0,1-.105.32.38.38,0,0,1-.3.155H1.2a.444.444,0,0,1-.4-.475V33.715a.515.515,0,0,1,.138-.36.368.368,0,0,1,.323-.112A7.874,7.874,0,0,1,7.32,40.689ZM1.6,40.259H6.44A6.985,6.985,0,0,0,1.6,34.285Z" transform="translate(0.533 22.185)" fill="none"/>
        </g>
      </g>
    </g>
  </g>
</svg>
