<svg xmlns="http://www.w3.org/2000/svg" width="24" height="24" viewBox="0 0 24 24">
  <g id="그룹_1570" data-name="그룹 1570" transform="translate(6822 -14571)">
    <g id="사각형_1673" data-name="사각형 1673" transform="translate(-6822 14571)" fill="#fff" stroke="#707070" stroke-width="2" opacity="0">
      <rect width="24" height="24" stroke="none"/>
      <rect x="1" y="1" width="22" height="22" fill="none"/>
    </g>
    <g id="google-store" transform="translate(-6823.632 14569.729)">
      <g id="그룹_1569" data-name="그룹 1569" transform="translate(5.178 3.7)">
        <g id="그룹_1568" data-name="그룹 1568" transform="translate(0 0)">
          <g id="그룹_1567" data-name="그룹 1567">
            <g id="그룹_1566" data-name="그룹 1566">
              <g id="그룹_1565" data-name="그룹 1565">
                <path id="패스_445" data-name="패스 445" d="M7.061,3.277A1.66,1.66,0,0,0,5.466,3.2l8.6,8.613,2.81-2.823ZM4.677,4a1.774,1.774,0,0,0-.166.747V20.5a1.7,1.7,0,0,0,.167.74l8.595-8.63ZM14.063,13.4,5.481,22.025a1.734,1.734,0,0,0,1.58-.082l9.814-5.721L14.063,13.4Zm6.546-2.237s-.006,0-.009-.006L17.875,9.574l-3.019,3.034,3.022,3.028,2.732-1.595a1.681,1.681,0,0,0,0-2.875Z" transform="translate(-4.511 -3.033)" fill="#0077ed" fill-rule="evenodd"/>
              </g>
            </g>
          </g>
        </g>
      </g>
    </g>
  </g>
</svg>
