<svg xmlns="http://www.w3.org/2000/svg" width="36" height="36" viewBox="0 0 36 36">
  <g id="그룹_18925" data-name="그룹 18925" transform="translate(-4045 -6439)">
    <g id="사각형_24123" data-name="사각형 24123" transform="translate(4045 6439)" fill="#f88" stroke="#707070" stroke-width="1" opacity="0">
      <rect width="36" height="36" stroke="none"/>
      <rect x="0.5" y="0.5" width="35" height="35" fill="none"/>
    </g>
    <g id="audio-headset-of-auriculars-with-microphone-included" transform="translate(4049 6442)">
      <g id="Layer_7_2_" transform="translate(0)">
        <path id="패스_439" data-name="패스 439" d="M36.893,17.922a6.024,6.024,0,0,0-2.308-4.745V11.614a11.614,11.614,0,1,0-23.228,0v1.144a6.038,6.038,0,0,0,3.13,11.2V11.884a6.106,6.106,0,0,0-1.252.13v-.4a9.736,9.736,0,0,1,19.472,0v.561a6.022,6.022,0,0,0-1.853-.291V23.958A6.025,6.025,0,0,0,32,23.847a6.709,6.709,0,0,1-4.964,3.823,1.046,1.046,0,0,0-.781-.353H24.367a1.056,1.056,0,0,0,0,2.111h1.885a1.053,1.053,0,0,0,.985-.686,7.88,7.88,0,0,0,6.1-5.323A6.028,6.028,0,0,0,36.893,17.922Z" transform="translate(-8.449)" fill="#fff"/>
      </g>
    </g>
  </g>
</svg>
