<svg xmlns="http://www.w3.org/2000/svg" width="24" height="24" viewBox="0 0 24 24">
  <g id="그룹_19066" data-name="그룹 19066" transform="translate(-2822 -17007)">
    <g id="그룹_310" data-name="그룹 310" transform="translate(2822.46 17007.461)">
      <g id="그룹_1572" data-name="그룹 1572">
        <g id="사각형_435" data-name="사각형 435" transform="translate(-0.46 -0.46)" fill="#fff" stroke="#707070" stroke-width="2" opacity="0.003">
          <rect width="24" height="24" stroke="none"/>
          <rect x="1" y="1" width="22" height="22" fill="none"/>
        </g>
        <path id="icons8-인스-타-그ᄅ_ᆷ" data-name="icons8-인스-타-그램" d="M11.053,5A6.06,6.06,0,0,0,5,11.053v7.9A6.06,6.06,0,0,0,11.053,25h7.9A6.06,6.06,0,0,0,25,18.948v-7.9A6.06,6.06,0,0,0,18.948,5Zm9.211,3.684a1.053,1.053,0,1,1-1.053,1.053A1.052,1.052,0,0,1,20.264,8.684ZM15,9.737A5.263,5.263,0,1,1,9.737,15,5.269,5.269,0,0,1,15,9.737Zm0,1.579A3.684,3.684,0,1,0,18.685,15,3.684,3.684,0,0,0,15,11.316Z" transform="translate(-3.479 -3.442)" fill="#0077ed"/>
      </g>
    </g>
  </g>
</svg>
