<svg id="그룹_8838" data-name="그룹 8838" xmlns="http://www.w3.org/2000/svg" width="150" height="20" viewBox="0 0 150 20">
  <ellipse id="타원_245" data-name="타원 245" cx="1.799" cy="1.803" rx="1.799" ry="1.803" transform="translate(115.799 16.058)" fill="#fff"/>
  <path id="패스_1761" data-name="패스 1761" d="M457.273-290.6l.028,4.619h10.836v2.98H457.286l-.014,5.233h10.891v2.973H453.218V-293.6h14.947l-.035,3.016Z" transform="translate(-358.38 294.351)" fill="#fff"/>
  <path id="패스_1762" data-name="패스 1762" d="M592.153-293.807h3.966v18.849h-3.965Z" transform="translate(-466.515 294.508)" fill="#fff"/>
  <g id="그룹_8836" data-name="그룹 8836" transform="translate(135.09 0.742)">
    <path id="패스_1763" data-name="패스 1763" d="M651.005-293.612H636.1v3.087h5.408V-274.8h3.964v-15.722h5.538Z" transform="translate(-636.1 293.612)" fill="#fff"/>
  </g>
  <path id="패스_1764" data-name="패스 1764" d="M369.164-274.787l-5.309-7.873a5.938,5.938,0,0,0,3.471-5.117c0-3.21-3-5.812-6.7-5.812h-7.069v.006h-1l-.188-.007v18.8h4.06v-7.054h3.864l4.757,7.054Zm-12.744-15.852h3.425a3.175,3.175,0,0,1,3.372,2.923,3.175,3.175,0,0,1-3.372,2.923h-3.425Z" transform="translate(-279.693 294.337)" fill="#fff"/>
  <g id="그룹_8837" data-name="그룹 8837" transform="translate(0)">
    <path id="패스_1765" data-name="패스 1765" d="M138.613-293.8v7.251h-9.541V-293.8h-4.005v18.849h4.005v-8.289h9.541v8.289h4.005V-293.8Z" transform="translate(-102.973 294.503)" fill="#fff"/>
    <path id="패스_1766" data-name="패스 1766" d="M37.284-286.423a5.687,5.687,0,0,0-1.98-1.2,18.014,18.014,0,0,0-2.436-.891l-2.573-.762c-1.871-.556-2.807-1.688-2.807-2.6a1.877,1.877,0,0,1,1-1.6,4.6,4.6,0,0,1,2.161-.515c1.744,0,3.189.866,3.445,1.994l3.831.02v-.041a4.652,4.652,0,0,0-3.484-4.391,11.013,11.013,0,0,0-3.838-.646,10.54,10.54,0,0,0-4.327.851,4.59,4.59,0,0,0-2.9,4.187v.041a4.516,4.516,0,0,0,2.245,3.847,10.748,10.748,0,0,0,3.083,1.452l2.613.663a12.979,12.979,0,0,1,1.671.635,5.753,5.753,0,0,1,.87.5,2.508,2.508,0,0,1,1.016,2.02,2.537,2.537,0,0,1-.858,1.884,4.957,4.957,0,0,1-3.348,1.039,6.136,6.136,0,0,1-2.571-.514,2.643,2.643,0,0,1-1.688-2.4l-4.112.064a5.182,5.182,0,0,0,3.31,4.723,12.034,12.034,0,0,0,5.041,1.008c2.873,0,5.359-.829,6.565-2.035a5.011,5.011,0,0,0,1.656-3.221,5.208,5.208,0,0,0,.051-.7,4.22,4.22,0,0,0-1.453-3.246C37.408-286.321,37.343-286.37,37.284-286.423Z" transform="translate(-22.297 297.052)" fill="#fff"/>
  </g>
  <path id="패스_1767" data-name="패스 1767" d="M231.512-275.5h4.3l6.185-11.783,5.851,11.783h4.366l-9.546-19H241.37Z" transform="translate(-185.42 295.053)" fill="#0077ed"/>
</svg>
