<svg id="star-24px" xmlns="http://www.w3.org/2000/svg" width="18" height="18" viewBox="0 0 18 18">
  <g id="그룹_1591" data-name="그룹 1591">
    <path id="패스_448" data-name="패스 448" d="M0,0H18V18H0Z" fill="none"/>
    <path id="패스_449" data-name="패스 449" d="M0,0H18V18H0Z" fill="none"/>
  </g>
  <g id="그룹_1592" data-name="그룹 1592" transform="translate(2.587 2.684)">
    <path id="패스_450" data-name="패스 450" d="M9.856,13.865l3.11,1.886a.748.748,0,0,0,1.117-.811l-.824-3.547L16.009,9a.75.75,0,0,0-.427-1.315l-3.62-.308L10.545,4.029a.749.749,0,0,0-1.379,0L7.75,7.373l-3.62.308A.75.75,0,0,0,3.7,9l2.75,2.389-.824,3.547a.748.748,0,0,0,1.117.811Z" transform="translate(-3.443 -3.573)" fill="#ffc200"/>
  </g>
</svg>
